<?xml version="1.0" standalone="no"?>
<!DOCTYPE svg PUBLIC "-//W3C//DTD SVG 20010904//EN"
 "http://www.w3.org/TR/2001/REC-SVG-20010904/DTD/svg10.dtd">
<svg version="1.0" xmlns="http://www.w3.org/2000/svg"
 width="254.000000pt" height="254.000000pt" viewBox="0 0 254.000000 254.000000"
 preserveAspectRatio="xMidYMid meet">
<metadata>
Created by potrace 1.11, written by Peter Selinger 2001-2013
</metadata>
<g transform="translate(0.000000,254.000000) scale(0.100000,-0.100000)"
fill="#000000" stroke="none">
<path d="M1185 2438 c-14 -3 -55 -9 -92 -13 -36 -3 -75 -10 -85 -16 -10 -5
-24 -9 -31 -7 -6 1 -22 -3 -34 -10 -13 -7 -23 -10 -23 -7 0 3 -13 -1 -30 -10
-16 -9 -30 -13 -30 -9 0 4 -7 1 -15 -6 -8 -7 -22 -10 -30 -6 -9 3 -14 2 -11
-3 3 -4 -21 -20 -54 -34 -32 -15 -61 -31 -65 -37 -3 -5 -15 -10 -26 -10 -10 0
-18 -5 -17 -12 2 -7 -3 -12 -10 -13 -7 0 -16 -4 -20 -10 -4 -5 -14 -11 -22
-13 -8 -2 -25 -17 -38 -33 -13 -16 -27 -27 -32 -24 -4 3 -11 -2 -14 -11 -3 -8
-10 -12 -16 -9 -5 3 -10 1 -10 -4 0 -6 -6 -11 -12 -11 -12 -1 -43 -37 -104
-120 -12 -16 -25 -26 -29 -22 -5 4 -5 2 -2 -4 4 -6 -8 -29 -26 -50 -31 -37
-91 -148 -92 -169 0 -5 -7 -26 -16 -45 -28 -60 -66 -190 -56 -190 6 0 5 -5 -1
-12 -12 -16 -27 -84 -25 -115 1 -13 -1 -23 -5 -23 -7 0 0 -138 12 -220 3 -25
8 -56 9 -70 2 -14 6 -31 10 -36 3 -6 7 -27 9 -47 1 -20 6 -33 10 -31 7 5 12
-19 11 -53 -1 -7 3 -13 9 -13 5 0 6 -5 3 -10 -3 -6 -1 -10 6 -10 7 0 10 -3 7
-6 -4 -3 4 -29 17 -57 13 -28 22 -54 19 -58 -2 -4 5 -11 16 -14 16 -5 20 -14
18 -33 -2 -17 2 -27 10 -27 6 0 12 -3 12 -8 0 -4 9 -17 20 -29 11 -12 20 -26
20 -30 0 -5 13 -22 30 -38 16 -16 30 -34 30 -41 0 -6 6 -9 14 -6 10 4 14 0 11
-14 -2 -12 2 -19 11 -19 8 0 13 -4 10 -9 -3 -5 10 -18 30 -30 21 -13 32 -26
28 -33 -4 -6 -3 -8 4 -4 5 3 20 -6 32 -21 12 -16 18 -22 15 -15 -6 11 -3 11
13 1 12 -7 19 -16 17 -20 -3 -3 13 -14 35 -24 22 -10 40 -24 40 -32 0 -7 11
-13 26 -13 19 0 25 -4 21 -14 -4 -11 -1 -13 10 -9 9 4 14 2 11 -3 -4 -5 8 -10
25 -11 17 -1 34 -8 39 -15 4 -7 8 -9 8 -5 0 5 10 1 22 -7 12 -9 30 -16 40 -16
10 0 18 -7 18 -15 0 -8 5 -15 11 -15 5 0 7 4 4 10 -4 6 4 6 22 -1 15 -5 31
-16 35 -22 6 -9 8 -9 8 0 0 14 36 5 51 -13 6 -8 17 -14 23 -14 6 0 4 5 -4 10
-10 6 3 8 40 3 39 -4 60 -12 73 -27 l18 -21 -11 22 c-7 16 -7 23 0 23 5 0 10
-5 10 -11 0 -8 4 -8 14 0 9 8 16 9 20 2 4 -6 20 -8 36 -4 19 3 36 0 47 -8 15
-12 16 -12 8 1 -8 13 -7 13 10 0 10 -8 16 -10 12 -4 -4 7 0 15 9 18 8 3 12 2
9 -4 -8 -12 -3 -12 29 0 17 6 26 6 26 0 0 -6 5 -10 11 -10 5 0 8 4 5 8 -2 4 7
9 22 10 14 1 29 8 34 15 6 9 8 9 8 0 0 -8 7 -10 18 -6 15 6 16 5 2 -13 -8 -10
1 -4 19 14 33 31 35 32 53 15 11 -10 19 -13 18 -8 -5 21 1 29 10 15 6 -10 10
-11 10 -2 0 6 11 12 25 12 14 0 25 5 25 10 0 6 5 10 11 10 5 0 8 -4 4 -9 -3
-5 0 -13 6 -17 7 -4 9 -3 6 2 -9 16 5 29 53 47 54 20 64 21 54 5 -4 -8 -3 -10
2 -5 5 5 10 13 10 18 1 5 2 12 3 16 0 4 8 -2 16 -13 14 -19 14 -19 9 1 -3 15
4 25 26 38 18 9 38 17 46 17 9 0 12 5 8 12 -5 7 -2 9 9 5 11 -4 14 -2 10 9 -4
10 0 12 13 7 13 -5 15 -3 9 7 -6 10 -4 12 8 7 12 -4 17 -1 17 10 0 12 3 13 14
4 12 -10 13 -8 9 9 -4 16 -2 19 11 14 9 -3 13 -11 9 -17 -3 -6 -1 -7 6 -3 9 6
9 11 0 22 -14 17 -7 27 23 29 12 1 24 8 26 16 3 11 1 11 -8 -1 -10 -13 -11
-13 -7 0 3 10 15 14 33 13 16 -1 23 0 17 3 -31 13 7 58 41 48 20 -6 20 -6 2 9
-18 13 -18 15 -2 24 10 5 16 14 14 19 -1 5 8 11 21 12 16 3 20 6 12 12 -17 10
3 43 33 57 12 5 16 8 9 7 -20 -5 -3 25 19 32 16 5 18 8 7 15 -12 7 -12 9 0 9
8 0 11 6 7 17 -4 10 -4 14 0 10 4 -4 15 5 24 21 12 19 14 29 6 35 -6 5 -2 7
12 4 15 -4 20 -1 15 6 -11 18 -12 38 -2 31 5 -3 9 0 9 6 0 6 6 8 13 4 6 -4 9
-4 5 1 -4 4 -2 15 5 24 11 14 10 14 -5 2 -10 -7 -18 -9 -18 -3 0 5 10 17 23
26 19 14 20 15 2 10 -16 -5 -17 -4 -5 5 8 5 15 16 16 23 0 7 2 23 2 36 1 14 6
21 13 16 7 -4 9 0 5 13 -3 10 1 45 9 77 8 32 13 62 10 67 -4 5 1 6 9 3 9 -3
16 -1 16 5 0 6 -4 11 -10 11 -5 0 -10 5 -10 11 0 5 6 7 13 3 9 -6 9 -4 1 7 -5
8 -9 24 -8 37 1 12 2 32 3 45 1 18 3 19 11 7 5 -8 10 -10 10 -4 0 5 -5 15 -12
22 -6 6 -13 48 -15 94 -6 111 -5 108 -15 108 -6 0 -8 6 -5 13 2 6 0 24 -4 40
-5 16 -4 25 2 22 5 -4 9 -1 9 4 0 6 -7 11 -15 11 -20 0 -19 10 3 27 9 8 11 11
4 8 -19 -10 -40 24 -37 60 2 16 1 24 -2 17 -2 -6 -9 -9 -14 -6 -6 3 -5 11 2
20 10 12 10 15 -2 12 -9 -2 -13 4 -11 16 2 12 -1 15 -8 11 -9 -5 -10 -1 -5 15
5 15 4 20 -4 16 -7 -5 -8 -1 -4 10 4 12 3 15 -5 10 -7 -4 -12 -2 -12 3 0 6 6
11 12 11 7 0 2 7 -11 16 -15 11 -21 23 -18 36 5 16 3 17 -11 6 -13 -11 -15
-11 -10 3 4 9 -1 23 -10 31 -27 24 -52 57 -52 68 0 6 -5 10 -11 10 -8 0 -7 5
1 15 11 13 10 14 -5 8 -14 -5 -17 -3 -12 10 4 11 2 14 -8 11 -9 -4 -25 10 -42
34 -15 22 -36 43 -45 45 -10 3 -18 12 -18 21 0 9 -6 16 -13 16 -8 0 -33 18
-56 40 -23 22 -46 40 -52 40 -12 0 -40 26 -34 32 2 2 -6 5 -18 5 -12 1 -29 10
-37 20 -8 10 -26 20 -39 21 -24 4 -54 26 -46 34 3 2 -8 4 -23 4 -15 -1 -26 4
-25 10 1 5 -13 10 -30 10 -18 -1 -31 4 -30 10 1 6 -15 10 -38 10 -21 -1 -40 3
-42 7 -1 5 -20 11 -42 14 -22 3 -42 8 -45 12 -3 3 -27 8 -55 10 -27 1 -54 5
-59 8 -13 8 -133 9 -161 1z"/>
<path d="M2380 1516 c0 -2 7 -7 16 -10 8 -3 12 -2 9 4 -6 10 -25 14 -25 6z"/>
<path d="M2400 1406 c0 -2 7 -7 16 -10 8 -3 12 -2 9 4 -6 10 -25 14 -25 6z"/>
<path d="M2406 1322 c-3 -5 1 -9 9 -9 8 0 15 4 15 9 0 4 -4 8 -9 8 -6 0 -12
-4 -15 -8z"/>
<path d="M2410 1251 c0 -6 4 -13 10 -16 6 -3 7 1 4 9 -7 18 -14 21 -14 7z"/>
<path d="M2415 1139 c-4 -6 -5 -12 -2 -15 2 -3 7 2 10 11 7 17 1 20 -8 4z"/>
<path d="M2390 1095 c0 -8 4 -15 10 -15 5 0 7 7 4 15 -4 8 -8 15 -10 15 -2 0
-4 -7 -4 -15z"/>
<path d="M2390 1050 c-9 -6 -10 -10 -3 -10 6 0 15 5 18 10 8 12 4 12 -15 0z"/>
<path d="M2375 1020 c3 -5 8 -10 11 -10 2 0 4 5 4 10 0 6 -5 10 -11 10 -5 0
-7 -4 -4 -10z"/>
<path d="M2356 962 c-3 -5 1 -9 9 -9 8 0 12 4 9 9 -3 4 -7 8 -9 8 -2 0 -6 -4
-9 -8z"/>
<path d="M2275 751 c-3 -5 -2 -12 3 -15 5 -3 9 1 9 9 0 17 -3 19 -12 6z"/>
<path d="M2230 686 c0 -2 9 -6 20 -9 11 -3 18 -1 14 4 -5 9 -34 13 -34 5z"/>
<path d="M2226 647 c-16 -12 -16 -13 2 -13 10 0 19 6 19 13 0 7 -1 13 -2 13
-1 0 -9 -6 -19 -13z"/>
<path d="M2176 622 c-2 -4 5 -14 17 -22 19 -12 21 -11 10 2 -7 8 -10 18 -6 21
3 4 1 7 -5 7 -6 0 -13 -4 -16 -8z"/>
<path d="M2151 573 c-1 -17 16 -25 25 -12 4 7 3 9 -4 5 -5 -3 -13 0 -15 6 -4
9 -6 10 -6 1z"/>
<path d="M2091 507 c-8 -10 -7 -14 2 -14 8 0 14 6 14 14 0 7 -1 13 -2 13 -2 0
-8 -6 -14 -13z"/>
<path d="M2011 427 c2 -1 13 -9 24 -17 19 -14 19 -14 6 3 -7 9 -18 17 -24 17
-6 0 -8 -1 -6 -3z"/>
<path d="M1955 361 c-3 -5 -2 -12 3 -15 5 -3 9 1 9 9 0 17 -3 19 -12 6z"/>
<path d="M1900 326 c0 -2 7 -7 16 -10 8 -3 12 -2 9 4 -6 10 -25 14 -25 6z"/>
<path d="M1845 309 c-11 -16 -1 -19 13 -3 7 8 8 14 3 14 -5 0 -13 -5 -16 -11z"/>
<path d="M756 247 c3 -10 9 -15 12 -12 3 3 0 11 -7 18 -10 9 -11 8 -5 -6z"/>
<path d="M1715 239 c-4 -6 -5 -12 -2 -15 2 -3 7 2 10 11 7 17 1 20 -8 4z"/>
<path d="M1715 200 c3 -5 8 -10 11 -10 2 0 4 5 4 10 0 6 -5 10 -11 10 -5 0 -7
-4 -4 -10z"/>
<path d="M1517 193 c-3 -5 4 -15 16 -23 21 -12 21 -12 7 6 -8 10 -15 20 -16
22 -1 2 -4 -1 -7 -5z"/>
<path d="M1631 184 c0 -11 3 -14 6 -6 3 7 2 16 -1 19 -3 4 -6 -2 -5 -13z"/>
<path d="M1500 166 c0 -2 7 -7 16 -10 8 -3 12 -2 9 4 -6 10 -25 14 -25 6z"/>
<path d="M1101 144 c0 -11 3 -14 6 -6 3 7 2 16 -1 19 -3 4 -6 -2 -5 -13z"/>
<path d="M1173 145 c0 -8 4 -12 9 -9 5 3 6 10 3 15 -9 13 -12 11 -12 -6z"/>
<path d="M1412 151 c-11 -6 -10 -10 0 -19 11 -8 14 -7 14 9 0 10 0 19 -1 19 0
0 -6 -4 -13 -9z"/>
<path d="M1340 139 c0 -5 5 -7 10 -4 6 3 10 8 10 11 0 2 -4 4 -10 4 -5 0 -10
-5 -10 -11z"/>
</g>
</svg>
